{"title":"Dolphin Tale 2011 DVDrip English Klam","uid":6870683,"size":1892279870,"categoryP":"video","categoryS":"movies","magnet":"?xt=urn:btih:139aa37f1e5cad6dfafb6a6db9b2d39df678b685&amp;dn=Dolphin+Tale+2011+DVDrip+English+Klam&amp;tr=udp%3A%2F%2Ftracker.openbittorrent.com%3A80&amp;tr=udp%3A%2F%2Fopen.demonii.com%3A1337&amp;tr=udp%3A%2F%2Ftracker.coppersurfer.tk%3A6969&amp;tr=udp%3A%2F%2Fexodus.desync.com%3A6969","seeders":1,"leechers":0,"uploader":"Klambake","files":-1,"time":1323267530,"description":"With: Harry Connick Jr., Morgan Freeman and Ashley Judd\n\nEen jongen raakt bevriend met Winter, een gewonde dolfijn die zijn staart verloren is in een krabbenval. Hij probeert iedereen om zich heen te motiveren om de dolfijn te redden. De dierenarts Clay redt de dolfijn en brengt hem naar zijn hospitaal. Hier proberen ze samen met een dokter (Morgan Freeman) een prothese te maken om de staart te vervangen en zo de dolfijn te redden.\n\nA story centered on the friendship between a boy and a dolphin whose tail was lost in a crab trap. \n\n------------------------ Dutch Friends ------------------------\n---------------------------------------------------------------\n- Bezoek ook eens mijn vrienden op: &lt;a href=&quot; http://www.Film-Test.nl&quot; rel=&quot;nofollow&quot; target=&quot;_NEW&quot;&gt; http://www.Film-Test.nl&lt;/a&gt; --\n----- voor mijn Nederlandse Sync. ondertitels ---- en meer ----\n------- http://www.Film-Test.nl ---- voor Films en meer -------\n---------------------------------------------------------------\n\nGeneral:\n\nComplete name                    : Dolphin Tale\\Dolphin Tale.avi\nFormat                           : AVI\nFormat/Info                      : Audio Video Interleave\nFile size                        : 1.76 GiB\nDuration                         : 1h 52mn\nOverall bit rate                 : 2 239 Kbps\n\nVideo:\n\nFormat                           : MPEG-4 Visual\nFormat profile                   : Simple@L3\nFormat settings, BVOP            : No\nFormat settings, QPel            : No\nFormat settings, GMC             : No warppoints\nFormat settings, Matrix          : Default (H.263)\nCodec ID                         : XVID\nCodec ID/Hint                    : XviD\nDuration                         : 1h 52mn\nBit rate                         : 1 844 Kbps\nWidth                            : 652 pixels\nHeight                           : 352 pixels\nDisplay aspect ratio             : 1.852\nFrame rate                       : 25.000 fps\nColor space                      : YUV\nChroma subsampling               : 4:2:0\nBit depth                        : 8 bits\nScan type                        : Progressive\nCompression mode                 : Lossy\nBits/(Pixel*Frame)               : 0.321\nStream size                      : 1.45 GiB (82%)\nWriting library                  : XviD 1.1.2 (UTC 2006-11-01)\n\nAudio:\n\nFormat                           : AC-3\nFormat/Info                      : Audio Coding 3\nMode extension                   : CM (complete main)\nCodec ID                         : 2000\nDuration                         : 1h 52mn\nBit rate mode                    : Constant\nBit rate                         : 384 Kbps\nChannel(s)                       : 6 channels\nChannel positions                : Front: L C R, Side: L R, LFE\nSampling rate                    : 48.0 KHz\nBit depth                        : 16 bits\nCompression mode                 : Lossy\nStream size                      : 309 MiB (17%)\nAlignment                        : Aligned on interleaves\nInterleave, duration             : 32 ms (0.80 video frame)\nInterleave, preload duration     : 288 ms\n\n","torrent":{"xt":"urn:btih:139aa37f1e5cad6dfafb6a6db9b2d39df678b685","amp;dn":"Dolphin+Tale+2011+DVDrip+English+Klam","amp;tr":["udp%3A%2F%2Ftracker.openbittorrent.com%3A80","udp%3A%2F%2Fopen.demonii.com%3A1337","udp%3A%2F%2Ftracker.coppersurfer.tk%3A6969","udp%3A%2F%2Fexodus.desync.com%3A6969"],"infoHash":"139aa37f1e5cad6dfafb6a6db9b2d39df678b685","infoHashBuffer":{"type":"Buffer","data":[19,154,163,127,30,92,173,109,250,251,106,109,185,178,211,157,246,120,182,133]},"announce":[],"urlList":[]}}